# xmcd
#
# Track frame offsets:
# 150
# 17792
# 33302
# 48053
# 61501
# 74040
# 88143
# 98781
# 124268
# 139376
# 154290
#
# Disc length: 2262 seconds
#
# Revision: 1
# Processed by: cddbd v1.5.2PL0 Copyright (c) Steve Scherf et al.
# Submitted via: CedeCatalogueitor 2.6.0.6 http://personales.ya.com/cdcatalogueitor
#
DISCID=9608d40b
DTITLE=Starter - Through The Morning Sky
DYEAR=1900
DGENRE=
TTITLE0=Five Words
TTITLE1=Clear Light
TTITLE2=Sirst Step
TTITLE3=Pretty Heart
TTITLE4=All Right
TTITLE5=It's You
TTITLE6=When It's Over
TTITLE7=I'm Glad
TTITLE8=Break Un The Pain
TTITLE9=Here I Am
TTITLE10=Small Shine
EXTD=
EXTT0=
EXTT1=
EXTT2=
EXTT3=
EXTT4=
EXTT5=
EXTT6=
EXTT7=
EXTT8=
EXTT9=
EXTT10=
PLAYORDER=
